<svg width="200" height="126" viewBox="0 0 200 126" fill="none" xmlns="http://www.w3.org/2000/svg">
<path d="M18.25 19.4325C21.376 19.3065 29 19.0525 32.876 18.1624C32.75 19.8146 32.5 24.8952 32.5 34.5484V38.867C36 35.9446 38.876 34.4204 42.376 34.4204C46.626 34.4204 49.5 36.3267 51.376 39.121C53 41.7894 53.876 45.4718 53.876 49.4104C53.876 61.2218 48.376 67.9547 37.25 67.9547C34.25 67.9547 30.624 66.9386 28.5 65.7944C27 66.3025 25 67.3186 23 67.9547L22.374 67.5726C22.5 64.1422 22.5 57.6654 22.5 48.9003V32.6422C22.5 28.5777 22.374 25.7833 22.25 23.371C22.124 21.7188 21.75 21.4648 18 21.4648L18.25 19.4325ZM37.25 65.5404C41.5 65.5404 43.5 60.3317 43.5 50.6785C43.5 46.742 42.874 43.4396 41.75 41.2793C40.75 39.6291 39.5 38.739 37.75 38.739C35.874 38.739 34.25 39.8831 33.124 41.5333C32.5 42.4235 32.25 43.1855 32.25 53.2188C32.25 61.4759 32.626 61.7299 33.126 62.746C34 64.6523 35.626 65.5404 37.25 65.5404ZM75.75 67.1926C73.124 67.1926 70.5 66.9365 66.374 66.9365C62 66.9365 59.874 67.1926 57.75 67.1926V65.0323C61.25 64.9043 61.75 64.2702 61.876 62.872C62 61.3478 62.126 58.9355 62.126 54.997V46.868C62.126 43.5656 62.126 40.8993 62 39.7551C61.874 38.613 61.374 38.2309 58.124 38.3589V36.1986C62.5 35.8186 67.75 35.6906 72 34.8025C71.874 36.4547 71.75 39.5031 71.75 46.488V55.2531C71.75 59.3176 71.876 61.0958 72 62.8741C72.126 64.6523 72.626 64.9063 75.75 65.2864V67.1926ZM66.374 20.0686C69.626 20.0686 71.5 21.9749 71.5 25.4033C71.5 28.3257 69.374 30.3579 66.124 30.3579C63.25 30.3579 61.25 28.3257 61.25 25.4033C61.25 22.3549 63.25 20.0686 66.376 20.0686H66.374ZM79 19.4325C83.876 19.3065 89.626 18.7985 92.626 18.1624C92.457 23.4106 92.373 28.6613 92.374 33.9124V49.7904C94.75 49.1543 99.874 42.8035 101.874 39.121C102.25 38.3589 102.25 37.9769 101.25 37.9769L98.5 37.7228V35.5646C103.126 35.6926 107.876 35.4365 112.626 35.1825V37.3428C109.126 37.7249 107.75 37.9789 106.374 39.121C104.5 40.7733 102.374 43.0595 100.374 45.4718C101.874 48.6483 108.126 60.3337 110.5 63.5081C111.25 64.6523 112.376 65.0323 113.626 65.0323L115.374 65.1604L115.25 67.3186C109.25 67.3186 104.124 67.5726 101.374 68.0807C99.874 64.5243 95.374 55.8872 94 53.2188C93.25 51.8226 92.874 51.3146 92.374 51.4406C92.374 56.6493 92.25 59.1896 92.5 62.872C92.626 64.5243 93 65.0323 96.376 65.1583V67.3186C94 67.3186 91.5 67.0646 87.376 67.0646C82.5 67.0646 80.376 67.3186 78.5 67.3186V65.1583C81.75 65.0323 82.25 64.3983 82.376 63.1261C82.5 61.6019 82.624 58.2994 82.624 51.6946V35.3105C82.624 30.1019 82.624 26.1654 82.5 22.863C82.5 22.1009 82 21.7188 81 21.7188H78.874L79 19.4325ZM48.876 98.5646C46.75 105.423 42.626 108.726 35.75 108.726C29.874 108.726 26.124 107.074 23.5 103.517C21.5 100.851 20.5 96.9124 20.5 92.4678C20.5 82.6865 26.376 75.1936 37.126 75.1936C43.626 75.1936 48.376 78.242 48.376 83.1966C48.376 86.6251 45.626 88.0212 43.376 88.0212C42.626 88.0212 41.5 87.7692 40.876 87.3872C40.126 86.8791 39.75 86.117 40 85.1009C40.126 84.0847 40.376 83.4486 40.376 82.4325C40.376 79.2581 39.25 77.7339 36.876 77.7339C33 77.7339 31 83.4507 31 91.3257C31 94.5001 31.376 98.0565 32.5 100.215C33.75 103.137 35.75 104.787 38.75 104.787C42.5 104.787 44.876 102.629 46.626 97.6744L48.876 98.5646ZM56 89.2934C56 85.2289 55.874 82.0525 55.624 80.4003C55.5 79.5122 55 79.1321 54.124 79.1321H51.874V76.9718C55.624 76.8438 60.75 76.5898 64.374 75.4476L64.75 75.7017C65 77.2259 65.25 80.9104 65.376 83.1966H65.624C67.252 78.7501 69.5 75.1936 74.126 75.1936C76.752 75.1936 78.752 77.3539 78.752 80.2743C78.752 84.4668 75.626 85.737 74.376 85.737C73.128 85.737 72.252 85.3549 71.876 84.4648C71.252 83.0686 70.876 82.3065 69.628 82.3065C68.252 82.3065 67.502 83.5767 66.628 85.6089C66.252 86.7531 66.002 88.0233 66.002 90.1815C66.002 97.4224 66.002 101.487 66.128 103.265C66.252 105.041 66.876 105.549 71.876 105.677L71.752 107.838C68.252 107.71 65.126 107.582 61.502 107.582C57.752 107.582 55.002 107.71 51.876 107.838L52.25 105.677C55.25 105.549 56 105.169 56 103.899C56.126 102.121 56.25 98.6906 56.25 94.7541V89.2914H56V89.2934ZM98.376 83.4507C98.376 79.6382 97.124 77.6059 94.624 77.6059C91.75 77.6059 90.376 79.2581 90.376 82.3065C90.376 83.1966 90.5 83.9587 90.624 84.7208C90.75 85.4809 90.5 86.245 89.876 86.6251C89 87.2612 87.5 87.7692 86.376 87.7692C84 87.7692 82 86.623 82 83.8307C82 79.7662 87.876 75.1936 96.126 75.1936C102.874 75.1936 105.874 77.988 107 79.7662C107.626 80.7823 108 81.9265 108 83.1966V101.867C108 104.027 108.626 104.535 109.376 104.535C110.376 104.535 111.5 102.883 112 100.089L114.126 101.105C113 106.568 109.75 108.854 105.25 108.854C101.374 108.854 99.25 107.202 98.624 103.899C95.624 106.948 92.5 108.854 89.25 108.854C84 108.854 80.5 105.297 80.5 99.4527C80.5 95.8962 82 93.864 84.626 92.7218C88.874 90.8156 95.25 88.9114 98.374 86.6251V83.4486L98.376 83.4507ZM90.5 97.5484C90.5 100.343 91.626 103.391 94.376 103.391C96.376 103.391 97.25 102.121 97.876 100.851C98.124 100.215 98.25 99.0726 98.25 97.8025V89.1654C96.874 90.0555 94.75 91.0716 93.124 92.0878C91.624 93.1039 90.5 94.372 90.5 97.5484ZM115.25 76.3378L119.25 76.4638V74.4315C119.376 69.0968 120.626 65.1583 123.376 62.364C125.876 59.8236 128.876 58.5535 132.5 58.5535C137.626 58.5535 140.376 61.0938 140.376 64.3962C140.376 66.8105 138.376 68.4607 135.624 68.4607C134.124 68.4607 133.124 67.4446 133.124 65.9204C133.124 63.2541 132.75 61.0958 130.876 61.0958C129.624 61.0958 128.876 62.238 128.624 64.3983C128.376 66.4305 128.75 70.241 129 76.2097H135.126L134.75 78.7501L129 79.1321C128.874 81.5444 128.874 85.737 128.874 90.6896C128.874 95.3902 128.874 99.5807 129 102.883C129.126 104.535 129.376 105.169 130.75 105.297C132 105.423 133 105.549 134.126 105.549L133.872 107.71C131.498 107.71 127.748 107.456 124.498 107.456C121.122 107.456 117.122 107.71 114.872 107.71L114.998 105.549C118.248 105.423 118.748 105.041 118.874 103.645C119.122 101.485 119.122 98.1825 119.122 93.738V79.0041L114.874 78.7501L115.248 76.3357L115.25 76.3378Z" fill="#FEC63E"/>
<path d="M158.126 76.3377L157.874 78.75L150.25 79.258C150.25 81.9264 150.124 85.8629 150.124 91.1976C150.124 96.7863 150.124 100.597 150.376 102.883C150.5 104.535 151.124 105.297 152.376 105.297C155 105.297 156.624 102.375 157.25 99.7086H158.25L159.126 102.629C157.626 106.313 153.874 108.854 148.374 108.854C145.374 108.854 142.75 107.838 141.5 106.313C140.624 105.169 140.25 103.773 140.25 101.741C140.25 96.5322 140.5 84.8467 140.5 79.258L136.5 78.876L136.75 76.4637H140.5C140.626 74.0494 140.626 71.255 140.626 68.7147C145 67.5726 148.248 66.1764 150 65.0322L150.75 65.1603C150.532 68.9243 150.406 72.6933 150.374 76.4637H158.126V76.3356V76.3377Z" fill="#FEC63E"/>
<path d="M190 10.1613V115.839H10V10.1613H190ZM200 0H0V126H200V0Z" fill="#FEC63E"/>
</svg>
